<?xml version="1.0" encoding="utf-8"?>
<!-- Generator: Adobe Illustrator 17.0.0, SVG Export Plug-In . SVG Version: 6.00 Build 0)  -->
<!DOCTYPE svg PUBLIC "-//W3C//DTD SVG 1.1//EN" "http://www.w3.org/Graphics/SVG/1.1/DTD/svg11.dtd">
<svg version="1.1" id="Icon" xmlns="http://www.w3.org/2000/svg" xmlns:xlink="http://www.w3.org/1999/xlink" x="0px" y="0px"
	 width="576px" height="576px" viewBox="0 0 576 576" enable-background="new 0 0 576 576" xml:space="preserve">
<g>
	<g>
		<path fill="#343F44" d="M3,528c0.4,23.4,17.7,42,40.8,44.8c3.3,0.4,6.7,0.2,10,0.2c15.3,0,30.7,0,46,0c58.4,0,116.8,0,175.2,0
			c61.1,0,122.1,0,183.2,0c18.7,0,37.3,0,56,0c4.1,0,8.2,0,12.4,0c12.8,0,24.6-4.5,33.7-13.6c12.8-12.8,12.7-29,12.7-45.5
			c0-18.8,0-37.6,0-56.4c0-61.1,0-122.3,0-183.4c0-58.3,0-116.5,0-174.8c0-15.2,0-30.4,0-45.6c0-3.7,0.1-7.4-0.4-11.2
			C569.9,20.2,550.4,3,528,3c-30.4,0-60.9,0-91.3,0c-63.2,0-126.3,0-189.5,0C192.5,3,137.7,3,83,3C71.7,3,60.3,3,49,3
			C22.5,3,3,24.1,3,50.1c0,37.3,0,74.5,0,111.8c0,64.4,0,128.9,0,193.3c0,50.4,0,100.9,0,151.3C3,513.7,3,520.8,3,528
			c0,6.4,10,6.4,10,0c0-30.2,0-60.4,0-90.5c0-63.1,0-126.2,0-189.3c0-54.9,0-109.7,0-164.6c0-11.5,0-23,0-34.5
			c0-14.3,7.6-26.6,20.4-33c5.9-2.9,12.3-3.1,18.6-3.1c39.8,0,79.7,0,119.5,0c64.7,0,129.5,0,194.2,0c48.5,0,96.9,0,145.4,0
			c14.3,0,28.5-1.4,40.2,8.9C564.2,33.2,563,48.5,563,63.7c0,47.9,0,95.8,0,143.7c0,64.8,0,129.6,0,194.4c0,40.5,0,81,0,121.5
			c0,5.3-0.1,10.3-1.7,15.5c-4.4,14.8-19,24.2-34.1,24.2c-11,0-22.1,0-33.1,0c-54.4,0-108.9,0-163.3,0c-63.3,0-126.6,0-189.8,0
			c-31,0-62,0-92.9,0c-19.4,0-34.7-15.9-35-35C12.9,521.6,2.9,521.5,3,528z"/>
	</g>
</g>
<g>
	<path fill="#343F44" d="M468,109c0-2.8-2.2-5-5-5h-58c-2.8,0-5,2.2-5,5v58c0,2.8,2.2,5,5,5h58c2.8,0,5-2.2,5-5V109z"/>
</g>
<g>
	<path fill="#343F44" d="M332,109c0-2.8-2.2-5-5-5H124c-2.8,0-5,2.2-5,5v58c0,2.8,2.2,5,5,5h203c2.8,0,5-2.2,5-5V109z"/>
</g>
<g>
	<path fill="#343F44" d="M468,392c0-2.8-2.2-5-5-5H336c-2.8,0-5,2.2-5,5v58c0,2.8,2.2,5,5,5h127c2.8,0,5-2.2,5-5V392z"/>
</g>
<g>
	<path fill="#343F44" d="M264,392c0-2.8-2.2-5-5-5H124c-2.8,0-5,2.2-5,5v58c0,2.8,2.2,5,5,5h135c2.8,0,5-2.2,5-5V392z"/>
</g>
<g>
	<path fill="#343F44" d="M468,252c0-2.8-2.2-5-5-5H124c-2.8,0-5,2.2-5,5v58c0,2.8,2.2,5,5,5h339c2.8,0,5-2.2,5-5V252z"/>
</g>
<g>
	<path fill="#343F44" d="M468,252c0-2.8-2.2-5-5-5h-58c-2.8,0-5,2.2-5,5v198c0,2.8,2.2,5,5,5h58c2.8,0,5-2.2,5-5V252z"/>
</g>
<g>
	<path fill="#343F44" d="M187,109c0-2.8-2.2-5-5-5h-58c-2.8,0-5,2.2-5,5v201c0,2.8,2.2,5,5,5h58c2.8,0,5-2.2,5-5V109z"/>
</g>
</svg>
